OpenSim_Sub10_CSStiffKnee_LCS.mot
version=1
nRows=38
nColumns=11
inDegrees=no
endheader
time	Bot_Shank	2nd_Bot_Shank	2nd_Top_Shank	Top_Shank	Bot_Thigh	Med_Thigh	Top_Thigh	BNOx	BNOy	BNOZ
20.43000000	10274.25594206	10213.60835331	10649.28945825	10553.60236070	12781.16127756	13966.01168118	14500.81868467	213.21553323	-68.08781262	131.63298305
20.44000000	10274.28811868	10220.38460273	10653.90941373	10560.40922703	12808.75449116	13974.28782521	14510.45562596	214.86787734	-67.03153241	113.41842846
20.45000000	10272.70368955	10224.85748645	10656.89555750	10564.70130647	12825.29380439	13983.62671656	14518.13436190	216.60959665	-65.84272783	99.99252518
20.46000000	10269.46279579	10226.94671650	10658.13664587	10566.39475350	12830.61184159	13993.50845276	14523.69452244	218.43408292	-64.52931567	91.69828362
20.47000000	10264.82328197	10227.10502750	10657.86627640	10566.07674548	12826.73678609	14003.38346713	14527.50532145	220.30982405	-63.12877070	87.69492570
20.48000000	10259.04684047	10225.79204328	10656.32250369	10564.34313266	12815.72519848	14012.70180962	14529.94281760	222.20498607	-61.67894971	87.12637306
20.49000000	10252.39516363	10223.46738767	10653.74338232	10561.78976527	12799.63363934	14020.91353015	14531.38306952	224.08773499	-60.21770951	89.13654731
20.50000000	10245.12994384	10220.59068451	10650.36696688	10559.01249356	12780.51866925	14027.46867866	14532.20213590	225.92623683	-58.78290689	92.86937008
20.51000000	10237.51287344	10217.62155763	10646.43131197	10556.60716774	12760.43684881	14031.81730507	14532.77607538	227.68865762	-57.41239865	97.46876301
20.52000000	10229.80564480	10215.01963088	10642.17447217	10555.16963808	12741.44473859	14033.40945933	14533.48094663	229.34316338	-56.14404159	102.07864772
20.53000000	10222.26852545	10213.23016611	10637.82856209	10555.27080698	12725.54830197	14031.72217343	14534.68009070	230.85874304	-55.01468699	105.86395367
20.54000000	10215.12901186	10212.36809979	10633.48907661	10556.90777718	12713.58976632	14026.85306717	14536.44434366	232.22331273	-54.03805925	108.47279059
20.55000000	10208.58182940	10212.21804299	10629.11489091	10559.50385172	12705.24762304	14019.52034812	14538.55203661	233.44371574	-53.20475592	110.03644843
20.56000000	10202.82027864	10212.55024480	10624.65894019	10562.45738580	12700.14976628	14010.46920591	14540.76878304	234.52761831	-52.50436899	110.70722501
20.57000000	10198.03766014	10213.13495430	10620.07415963	10565.16673466	12697.92409022	14000.44483020	14542.86019644	235.48268665	-51.92649050	110.63741811
20.58000000	10194.42727446	10213.74242060	10615.31348444	10567.03025352	12698.19848902	13990.19241062	14544.59189030	236.31658698	-51.46071244	109.97932555
20.59000000	10192.18242214	10214.14289279	10610.32984979	10567.44629759	12700.60085685	13980.45713682	14545.72947812	237.03698552	-51.09662684	108.88524513
20.60000000	10191.49640375	10214.10661996	10605.07619089	10565.81322209	12704.75908789	13971.98419845	14546.03857338	237.65154851	-50.82382572	107.50747465
20.61000000	10192.56251985	10213.40385121	10599.50544292	10561.52938225	12710.30107630	13965.51878515	14545.28478957	238.16794215	-50.63190108	105.99831192
20.62000000	10195.57407099	10211.80483562	10593.57054107	10553.99313329	12716.85471624	13961.80608655	14543.23374019	238.59383268	-50.51044494	104.51005472
20.63000000	10200.72435773	10209.07982229	10587.22442054	10542.60283043	12724.04790189	13961.59129232	14539.65103872	238.93688631	-50.44904931	103.19500088
20.64000000	10208.20668063	10204.99906031	10580.42001653	10526.75682889	12731.50852742	13965.61959208	14534.30229866	239.20476926	-50.43730622	102.20544819
20.65000000	10218.15283156	10199.42866994	10573.17789040	10506.11471172	12739.06076168	13974.46930722	14527.11084353	239.40340726	-50.46827482	101.67293016
20.66000000	10230.24001474	10192.94331918	10566.01840339	10482.26669886	12747.97936613	13987.48549829	14519.16557267	239.52586263	-50.56063872	101.57551916
20.67000000	10243.94168684	10186.43524924	10559.68592848	10457.66832746	12760.18926213	14003.46047472	14512.07779992	239.55943226	-50.74456645	101.82250582
20.68000000	10258.73034349	10180.79819935	10554.92589531	10434.77921633	12777.61843784	14021.18393860	14507.46130333	239.49138588	-51.05028073	102.32285634
20.69000000	10274.07848029	10176.92590868	10552.48373353	10416.05898429	12802.19488140	14039.44559204	14506.92986097	239.30899319	-51.50800428	102.98553691
20.70000000	10289.45859286	10175.71211646	10553.10487279	10403.96725014	12835.84658098	14057.03513713	14512.09725090	238.99952390	-52.14795981	103.71951374
20.71000000	10304.35973855	10177.95531538	10557.44046106	10400.72550555	12880.21891966	14072.82205813	14524.39701485	238.55234403	-52.99607566	104.43958147
20.72000000	10318.44195177	10183.47070989	10565.16831868	10406.09690906	12934.03977474	14086.49947941	14543.40200396	237.97846094	-54.03394677	105.12070553
20.73000000	10331.46613423	10191.49341714	10575.39205493	10418.39433454	12994.31585162	14098.24642884	14567.58736179	237.30164928	-55.21701374	105.77334889
20.74000000	10343.19449131	10201.25105674	10587.20785746	10435.91191120	13058.03160981	14108.24821452	14595.41404420	236.54584868	-56.50037911	106.40843332
20.75000000	10353.38922843	10211.97124831	10599.71191395	10456.94376822	13122.17150885	14116.69014456	14625.34300702	235.73499879	-57.83914546	107.03688057
20.76000000	10361.81255096	10222.88161146	10612.00041209	10479.78403479	13183.72000826	14123.75752704	14655.83520612	234.89303925	-59.18841532	107.66961241
20.77000000	10368.22666432	10233.20976580	10623.16953953	10502.72684011	13239.66156756	14129.63567006	14685.35159735	234.04390970	-60.50329126	108.31755060
20.78000000	10372.39377389	10242.18333093	10632.31548395	10524.06631335	13286.98064626	14134.50988173	14712.35313656	233.21154980	-61.73887583	108.99161691
20.79000000	10374.07608507	10249.02992647	10638.53443303	10542.09658372	13322.66170391	14138.56547014	14735.30077960	232.41989917	-62.85027159	109.70273309
20.80000000	10373.06298431	10253.02281452	10640.98359864	10555.20186276	13343.87762116	14141.97912307	14752.73400500	231.69177306	-63.79491069	110.46092109
